<svg id="visual" viewBox="0 0 1920 1080" width="1920" height="1080" xmlns="http://www.w3.org/2000/svg" xmlns:xlink="http://www.w3.org/1999/xlink" version="1.1"><rect x="0" y="0" width="1920" height="1080" fill="#e0e0e0"></rect><path d="M0 868L45.7 855.3C91.3 842.7 182.7 817.3 274.2 816.2C365.7 815 457.3 838 548.8 855.8C640.3 873.7 731.7 886.3 823 890.3C914.3 894.3 1005.7 889.7 1097 884.7C1188.3 879.7 1279.7 874.3 1371.2 862.7C1462.7 851 1554.3 833 1645.8 817.7C1737.3 802.3 1828.7 789.7 1874.3 783.3L1920 777L1920 1081L1874.3 1081C1828.7 1081 1737.3 1081 1645.8 1081C1554.3 1081 1462.7 1081 1371.2 1081C1279.7 1081 1188.3 1081 1097 1081C1005.7 1081 914.3 1081 823 1081C731.7 1081 640.3 1081 548.8 1081C457.3 1081 365.7 1081 274.2 1081C182.7 1081 91.3 1081 45.7 1081L0 1081Z" fill="#404040" stroke-linecap="round" stroke-linejoin="miter"></path></svg>