<svg id="visual" viewBox="0 0 1920 1080" width="1920" height="1080" xmlns="http://www.w3.org/2000/svg" xmlns:xlink="http://www.w3.org/1999/xlink" version="1.1"><rect x="0" y="0" width="1920" height="1080" fill="#e0e0e0"></rect><path d="M0 741L45.7 726.7C91.3 712.3 182.7 683.7 274.2 682.8C365.7 682 457.3 709 548.8 727.3C640.3 745.7 731.7 755.3 823 746C914.3 736.7 1005.7 708.3 1097 699.5C1188.3 690.7 1279.7 701.3 1371.2 708C1462.7 714.7 1554.3 717.3 1645.8 722.2C1737.3 727 1828.7 734 1874.3 737.5L1920 741L1920 1081L1874.3 1081C1828.7 1081 1737.3 1081 1645.8 1081C1554.3 1081 1462.7 1081 1371.2 1081C1279.7 1081 1188.3 1081 1097 1081C1005.7 1081 914.3 1081 823 1081C731.7 1081 640.3 1081 548.8 1081C457.3 1081 365.7 1081 274.2 1081C182.7 1081 91.3 1081 45.7 1081L0 1081Z" fill="#d8d8d8"></path><path d="M0 780L45.7 780.8C91.3 781.7 182.7 783.3 274.2 776.7C365.7 770 457.3 755 548.8 763C640.3 771 731.7 802 823 819.8C914.3 837.7 1005.7 842.3 1097 843C1188.3 843.7 1279.7 840.3 1371.2 838C1462.7 835.7 1554.3 834.3 1645.8 823.2C1737.3 812 1828.7 791 1874.3 780.5L1920 770L1920 1081L1874.3 1081C1828.7 1081 1737.3 1081 1645.8 1081C1554.3 1081 1462.7 1081 1371.2 1081C1279.7 1081 1188.3 1081 1097 1081C1005.7 1081 914.3 1081 823 1081C731.7 1081 640.3 1081 548.8 1081C457.3 1081 365.7 1081 274.2 1081C182.7 1081 91.3 1081 45.7 1081L0 1081Z" fill="#cccccc"></path><path d="M0 921L45.7 900.8C91.3 880.7 182.7 840.3 274.2 839.2C365.7 838 457.3 876 548.8 885.7C640.3 895.3 731.7 876.7 823 867.3C914.3 858 1005.7 858 1097 849.7C1188.3 841.3 1279.7 824.7 1371.2 813.8C1462.7 803 1554.3 798 1645.8 805.8C1737.3 813.7 1828.7 834.3 1874.3 844.7L1920 855L1920 1081L1874.3 1081C1828.7 1081 1737.3 1081 1645.8 1081C1554.3 1081 1462.7 1081 1371.2 1081C1279.7 1081 1188.3 1081 1097 1081C1005.7 1081 914.3 1081 823 1081C731.7 1081 640.3 1081 548.8 1081C457.3 1081 365.7 1081 274.2 1081C182.7 1081 91.3 1081 45.7 1081L0 1081Z" fill="#c0c0c0"></path><path d="M0 934L45.7 939.7C91.3 945.3 182.7 956.7 274.2 946.3C365.7 936 457.3 904 548.8 901.8C640.3 899.7 731.7 927.3 823 935C914.3 942.7 1005.7 930.3 1097 924.7C1188.3 919 1279.7 920 1371.2 913.8C1462.7 907.7 1554.3 894.3 1645.8 886.3C1737.3 878.3 1828.7 875.7 1874.3 874.3L1920 873L1920 1081L1874.3 1081C1828.7 1081 1737.3 1081 1645.8 1081C1554.3 1081 1462.7 1081 1371.2 1081C1279.7 1081 1188.3 1081 1097 1081C1005.7 1081 914.3 1081 823 1081C731.7 1081 640.3 1081 548.8 1081C457.3 1081 365.7 1081 274.2 1081C182.7 1081 91.3 1081 45.7 1081L0 1081Z" fill="#b4b4b4"></path><path d="M0 1026L45.7 1020.2C91.3 1014.3 182.7 1002.7 274.2 989.2C365.7 975.7 457.3 960.3 548.8 965.2C640.3 970 731.7 995 823 1000.3C914.3 1005.7 1005.7 991.3 1097 986.2C1188.3 981 1279.7 985 1371.2 981.5C1462.7 978 1554.3 967 1645.8 964.7C1737.3 962.3 1828.7 968.7 1874.3 971.8L1920 975L1920 1081L1874.3 1081C1828.7 1081 1737.3 1081 1645.8 1081C1554.3 1081 1462.7 1081 1371.2 1081C1279.7 1081 1188.3 1081 1097 1081C1005.7 1081 914.3 1081 823 1081C731.7 1081 640.3 1081 548.8 1081C457.3 1081 365.7 1081 274.2 1081C182.7 1081 91.3 1081 45.7 1081L0 1081Z" fill="#a8a8a8"></path></svg>